<svg version="1.0" xmlns="http://www.w3.org/2000/svg" width="900.000000pt" height="801.000000pt"
    viewBox="0 0 900.000000 801.000000" preserveAspectRatio="xMidYMid meet">

    <g transform="translate(0.000000,801.000000) scale(0.100000,-0.100000)" fill="#4e342e" stroke="none">
        <path d="M6010 7940 c-69 -22 -207 -118 -274 -191 -93 -100 -174 -235 -198
-329 -5 -19 -13 -51 -18 -71 -33 -128 -28 -362 9 -484 42 -134 133 -289 257
-435 191 -226 282 -373 340 -550 26 -77 25 -263 -1 -340 -16 -48 -97 -220
-129 -275 -38 -66 -122 -182 -172 -240 -24 -27 -44 -55 -44 -62 0 -37 96 -37
205 -1 153 51 320 158 475 306 230 218 330 435 330 712 0 173 -44 322 -135
460 -47 70 -208 261 -359 424 -130 140 -175 197 -239 303 -82 138 -97 191 -97
344 0 98 4 140 20 188 22 69 64 157 87 183 8 9 13 27 11 40 -3 25 -27 32 -68
18z" />
        <path d="M98 6870 c-28 -15 -40 -29 -47 -58 -14 -52 -17 -2213 -3 -2238 21
-40 49 -54 126 -64 118 -15 2056 -14 2106 1 22 7 50 23 62 36 l23 25 0 1123
c0 1109 0 1123 -20 1145 -46 52 -8 50 -1147 50 -1036 -1 -1064 -1 -1100 -20z
m1818 -461 c18 -20 19 -46 18 -720 0 -592 -3 -702 -15 -714 -12 -12 -127 -14
-712 -16 -646 -3 -699 -2 -718 14 -19 17 -20 28 -17 712 3 601 5 696 18 709
27 27 166 33 791 35 614 1 616 1 635 -20z" />
        <path d="M882 6044 c-22 -15 -22 -15 -22 -350 l0 -335 35 -15 c27 -11 93 -14
316 -14 355 0 338 -6 340 130 1 52 1 201 0 330 -1 225 -2 236 -22 253 -19 15
-50 17 -323 17 -257 0 -305 -2 -324 -16z" />
        <path d="M2812 6873 c-13 -3 -27 -15 -32 -27 -4 -12 -6 -107 -3 -210 l6 -188
25 -9 c15 -6 430 -8 1068 -7 l1042 3 26 24 c26 24 26 26 26 182 0 152 -1 158
-24 186 -14 16 -42 35 -64 41 -29 9 -299 12 -1043 11 -552 -1 -1014 -4 -1027
-6z" />
        <path d="M3835 5990 c-84 -9 -112 -25 -135 -78 -18 -41 -20 -68 -20 -334 0
-319 4 -344 59 -372 23 -12 62 -16 165 -16 204 0 217 11 226 191 8 172 -28
158 414 159 346 0 360 1 392 21 l34 21 0 166 c0 183 -2 189 -65 228 -27 18
-58 19 -520 20 -269 1 -517 -2 -550 -6z" />
        <path d="M2820 5763 c-14 -9 -28 -22 -32 -27 -4 -6 -8 -196 -8 -423 l0 -411
31 -26 c30 -25 34 -26 180 -26 165 0 202 10 219 56 6 15 10 186 10 400 0 414
0 416 -63 454 -28 17 -51 20 -172 20 -116 0 -145 -3 -165 -17z" />
        <path d="M4405 4630 c-509 -4 -675 -8 -692 -17 -12 -7 -31 -26 -42 -42 -21
-29 -21 -38 -21 -677 0 -759 6 -854 76 -1189 8 -38 21 -92 29 -120 43 -151 45
-158 85 -260 27 -67 119 -251 158 -315 126 -205 305 -403 483 -536 153 -114
170 -125 312 -198 142 -73 418 -176 473 -176 13 0 34 -4 47 -9 56 -21 305 -51
427 -51 122 0 322 24 421 50 24 6 71 18 104 27 33 8 75 21 93 29 18 8 39 14
46 14 7 0 47 14 87 31 395 168 658 370 893 687 39 53 78 94 94 100 15 6 63 13
107 17 135 10 311 47 393 81 18 8 38 14 46 14 16 0 165 65 225 98 196 108 395
291 497 458 122 200 174 375 182 609 12 375 -152 712 -426 875 -142 84 -257
111 -502 119 l-175 6 -3 139 c-3 137 -3 139 -32 176 -25 31 -39 39 -87 48 -65
13 -2149 21 -3298 12z m2986 -425 c13 -9 12 -983 -1 -1054 -6 -31 -17 -110
-24 -176 -8 -66 -19 -138 -25 -160 -14 -55 -51 -204 -57 -235 -5 -24 -22 -66
-50 -123 -8 -16 -14 -34 -14 -42 0 -7 -7 -18 -15 -25 -8 -7 -15 -18 -15 -26 0
-7 -12 -32 -27 -56 -48 -74 -53 -82 -63 -105 -5 -13 -14 -23 -20 -23 -5 0 -10
-6 -10 -13 0 -35 -268 -312 -363 -375 -28 -20 -56 -41 -60 -49 -4 -7 -17 -13
-27 -13 -10 0 -23 -6 -27 -12 -4 -7 -17 -18 -28 -24 -51 -27 -103 -53 -135
-66 -19 -9 -52 -23 -72 -32 -88 -38 -106 -45 -163 -61 -33 -9 -82 -24 -110
-33 -74 -25 -561 -24 -619 1 -21 9 -49 17 -62 17 -13 0 -70 16 -126 35 -144
48 -176 60 -235 89 -29 14 -57 26 -63 26 -5 0 -10 4 -10 9 0 5 -12 14 -27 20
-16 6 -41 20 -58 31 -16 11 -37 23 -45 27 -8 4 -60 41 -115 82 -108 81 -181
152 -253 246 -25 33 -52 64 -59 68 -7 4 -13 12 -13 18 0 5 -17 33 -38 62 -39
52 -49 69 -89 149 -33 67 -53 115 -53 130 0 7 -7 22 -15 32 -8 11 -15 32 -15
47 0 14 -6 32 -14 38 -8 7 -16 28 -20 49 -11 79 -36 219 -45 262 -32 144 -34
181 -38 706 -3 450 -1 543 10 553 20 16 3281 22 3308 6z m810 -424 c87 -31
121 -52 176 -108 92 -96 125 -193 130 -380 4 -125 3 -135 -27 -222 -96 -285
-318 -481 -650 -575 -122 -34 -164 -29 -143 16 10 22 27 86 43 158 4 19 12 55
18 80 6 25 18 97 26 160 8 63 22 165 31 225 11 78 15 190 15 381 0 149 3 274
7 277 3 4 77 7 163 7 129 0 167 -3 211 -19z" />
        <path d="M135 4079 c-113 -15 -105 36 -105 -602 0 -610 -1 -600 64 -612 18 -4
90 -5 159 -3 136 3 155 10 201 72 20 26 21 41 22 348 0 301 2 321 19 334 14
10 57 14 167 14 226 0 248 17 248 188 0 194 -29 246 -142 256 -122 11 -564 14
-633 5z" />
        <path d="M1398 4075 l-28 -16 0 -413 c0 -381 1 -414 18 -428 19 -17 152 -38
242 -38 70 0 147 25 162 54 8 13 11 61 10 132 -3 124 10 199 39 231 18 19 36
22 147 28 184 10 306 29 342 55 38 27 43 59 38 214 -5 158 -12 171 -100 179
-35 4 -238 9 -453 12 -344 5 -393 4 -417 -10z" />
        <path d="M2840 4079 c-63 -25 -60 -5 -60 -425 l0 -383 -26 -20 c-25 -20 -39
-21 -270 -21 -207 0 -245 -2 -258 -16 -13 -13 -16 -45 -16 -194 0 -194 2 -202
58 -217 15 -4 214 -8 442 -8 482 0 471 -2 495 78 22 74 22 1124 0 1166 -13 25
-22 30 -90 40 -92 13 -241 13 -275 0z" />
        <path d="M803 2453 l-711 -3 -25 -29 -24 -29 -5 -1089 c-4 -862 -3 -1094 7
-1119 7 -17 28 -41 48 -52 l34 -22 1083 0 1082 0 34 34 34 34 2 1058 c2 583 2
1081 1 1109 -1 41 -6 54 -30 76 l-30 26 -288 6 c-159 4 -336 6 -394 5 -58 -2
-426 -4 -818 -5z m1083 -449 c12 -3 27 -17 33 -30 15 -33 16 -1367 1 -1395
-10 -18 -29 -19 -714 -19 -642 0 -705 1 -717 17 -12 13 -14 137 -17 696 l-2
680 21 23 c21 23 28 24 213 27 392 6 1162 7 1182 1z" />
        <path d="M882 1654 c-22 -15 -22 -15 -22 -355 l0 -339 33 -20 c30 -19 51 -20
314 -20 l281 0 31 26 31 26 0 328 0 329 -26 20 c-26 20 -38 21 -323 21 -252 0
-300 -2 -319 -16z" />
        <path d="M2810 2363 c-8 -3 -18 -11 -22 -17 -4 -6 -8 -192 -8 -413 l0 -402 22
-12 c16 -8 134 -11 427 -10 222 1 408 4 413 7 16 10 7 46 -27 109 -47 87 -98
192 -131 273 -8 17 -20 47 -28 65 -7 17 -19 48 -25 67 -45 131 -57 163 -85
229 -46 110 -50 111 -311 110 -115 0 -217 -3 -225 -6z" />
        <path d="M2826 1049 l-26 -20 0 -426 0 -425 34 -34 34 -34 221 0 c283 0 265
-12 274 184 4 77 7 271 7 433 l0 294 -25 24 -24 25 -234 0 c-222 0 -236 -1
-261 -21z" />
        <path d="M4015 909 c-164 -9 -180 -13 -229 -64 -98 -100 -102 -261 -9 -346 87
-81 114 -83 1051 -75 422 3 1199 8 1727 11 1157 7 1120 3 1224 118 54 60 73
111 75 197 1 88 -17 128 -71 154 -31 15 -195 16 -1836 14 -991 -1 -1860 -5
-1932 -9z" />
    </g>
</svg>